<?xml version="1.0" encoding="UTF-8" standalone="no"?><!DOCTYPE svg PUBLIC "-//W3C//DTD SVG 1.1//EN" "http://www.w3.org/Graphics/SVG/1.1/DTD/svg11.dtd"><svg width="100%" height="100%" viewBox="0 0 28 28" version="1.1" xmlns="http://www.w3.org/2000/svg" xmlns:xlink="http://www.w3.org/1999/xlink" xml:space="preserve" xmlns:serif="http://www.serif.com/" style="fill-rule:evenodd;clip-rule:evenodd;stroke-linejoin:round;stroke-miterlimit:2;"><path d="M27.763,13.766c-0,7.451 -6.05,13.5 -13.5,13.5c-7.451,-0 -13.5,-6.049 -13.5,-13.5c-0,-7.451 6.049,-13.5 13.5,-13.5c7.45,-0 13.5,6.049 13.5,13.5Z" style="fill:#f8f9fa;"/><g><path d="M13.227,14.801c-0.516,-0.515 -0.973,-1.085 -1.362,-1.7c-0.142,-0.225 -0.141,-0.495 0.004,-0.718l0.555,-0.857c0.118,-0.183 0.141,-0.391 0.064,-0.595l-0.955,-2.545c-0.149,-0.398 -0.622,-0.556 -0.981,-0.327l-1.332,0.851c-0.608,0.389 -0.89,1.087 -0.722,1.788c0.515,2.16 1.639,4.103 3.193,5.64c1.536,1.553 3.48,2.677 5.639,3.193c0.702,0.167 1.4,-0.115 1.788,-0.723l0.851,-1.332c0.229,-0.358 0.072,-0.831 -0.327,-0.981l-2.544,-0.955c-0.204,-0.076 -0.413,-0.054 -0.596,0.065l-0.857,0.555c-0.222,0.144 -0.492,0.146 -0.717,0.004c-0.615,-0.389 -1.185,-0.847 -1.701,-1.363Z" style="fill:#00457e;"/></g></svg>