<svg width="28" height="28" viewBox="0 0 28 28" fill="none" xmlns="http://www.w3.org/2000/svg">
<rect x="0.762634" y="0.265869" width="27" height="27" rx="13.5" fill="#F8F9FA"/>
<g clip-path="url(#clip0_28_77)">
<path fill-rule="evenodd" clip-rule="evenodd" d="M13.2274 14.8011C12.7112 14.2858 12.2537 13.7155 11.8647 13.1005C11.7227 12.8759 11.7242 12.6061 11.8686 12.3831L12.4236 11.5262C12.542 11.3433 12.5646 11.1346 12.4881 10.9307L11.5334 8.38631C11.3839 7.98785 10.9108 7.83019 10.5521 8.05933L9.22029 8.91028C8.61248 9.29864 8.33029 9.99675 8.49773 10.6983C9.01305 12.8578 10.137 14.8011 11.6905 16.338C13.2274 17.8915 15.1707 19.0155 17.3302 19.5308C18.0318 19.6982 18.7299 19.416 19.1182 18.8082L19.9692 17.4764C20.1983 17.1177 20.0407 16.6446 19.6422 16.4951L17.0979 15.5404C16.8939 15.4639 16.6852 15.4865 16.5023 15.6049L15.6454 16.1599C15.4225 16.3043 15.1526 16.3058 14.928 16.1638C14.313 15.7748 13.7427 15.3173 13.2274 14.8011Z" fill="#2B6CB0"/>
</g>
<defs>
<clipPath id="clip0_28_77">
<rect width="12" height="12" fill="white" transform="translate(8.26263 7.76587)"/>
</clipPath>
</defs>
</svg>
